# xmcd
#
# Track frame offsets: 
#        150
#        16620
#        39727
#        59115
#        77922
#        96385
#        115365
#        132732
#        153930
#        173262
#        191720
#        209832
#
# Disc length: 3024 seconds
#
# Revision: 1
# Processed by: cddbd v1.5.2PL0 Copyright (c) Steve Scherf et al.
# Submitted via: ExactAudioCopy v0.99pb4
#
DISCID=ac0bce0c
DTITLE=Καίτη Γαρμπή - Ευαισθησίες
DYEAR=1997
DGENRE=Greek
TTITLE0=Ιεροσυλία
TTITLE1=Μου λείπεις
TTITLE2=Ευαισθησίες
TTITLE3=Τρυφερότητα
TTITLE4=Η πατρίδα μου (συμ. ο Αντώνης Βαρδής)
TTITLE5=Κιβωτός
TTITLE6=Άλλο εσύ κι άλλο εγώ
TTITLE7=Αποζημίωση
TTITLE8=Όλα στα καταλογίζω
TTITLE9=Φουγάρο
TTITLE10=Απολογήσου
TTITLE11=Ασυμφωνία χαρακτήρων
EXTD=
EXTT0=
EXTT1=
EXTT2=
EXTT3=
EXTT4=
EXTT5=
EXTT6=
EXTT7=
EXTT8=
EXTT9=
EXTT10=
EXTT11=
PLAYORDER=
